<svg width="19" height="18" viewBox="0 0 19 18" fill="none" xmlns="http://www.w3.org/2000/svg">
<path d="M9.84336 1.62232C12.2434 1.62232 12.525 1.62237 13.477 1.676C15.9172 1.78997 17.0569 2.94306 17.1642 5.36321C17.2111 6.31518 17.2178 6.59653 17.2178 9.00327C17.2178 11.41 17.2178 11.6848 17.1642 12.6368C17.0502 15.0569 15.9172 16.21 13.477 16.324C12.525 16.3642 12.2434 16.3777 9.84336 16.3777C7.44333 16.3777 7.16172 16.3776 6.20305 16.324C3.76279 16.21 2.62981 15.0502 2.51585 12.6368C2.47562 11.6848 2.46224 11.4035 2.46224 8.99673C2.46224 6.58999 2.46221 6.31518 2.51585 5.36321C2.62981 2.94306 3.76279 1.78327 6.20305 1.676C7.16172 1.63578 7.40981 1.62232 9.84336 1.62232ZM9.84336 2.83266e-08C7.3964 2.83266e-08 7.08799 -0.000274938 6.12932 0.0533571C2.86446 0.207549 1.04773 2.01767 0.900239 5.28923C0.853311 6.2479 0.839844 6.55647 0.839844 8.99673C0.839844 11.437 0.839896 11.7521 0.893528 12.7108C1.04772 15.9756 2.85776 17.7923 6.12932 17.9398C7.08799 17.9867 7.3964 18 9.84336 18C12.2903 18 12.592 18.0001 13.5507 17.9398C16.8156 17.7923 18.6323 15.9823 18.7798 12.7108C18.8267 11.7521 18.8402 11.4437 18.8402 8.99673C18.8402 6.54976 18.8401 6.2479 18.7865 5.28923C18.639 2.02437 16.8223 0.207549 13.5507 0.0533571C12.5652 0.0131331 12.2568 2.83266e-08 9.84336 2.83266e-08ZM9.84336 4.37757C8.9279 4.37625 8.03266 4.64659 7.27093 5.15436C6.5092 5.66214 5.91526 6.38453 5.56432 7.23005C5.21338 8.07557 5.12114 9.00619 5.29942 9.90412C5.47769 10.8021 5.91842 11.6271 6.56575 12.2744C7.21308 12.9218 8.03795 13.3623 8.93588 13.5406C9.83382 13.7189 10.7644 13.6267 11.61 13.2758C12.4555 12.9248 13.1779 12.3307 13.6856 11.569C14.1934 10.8073 14.4638 9.91219 14.4624 8.99673C14.4607 7.77222 13.9734 6.59831 13.1076 5.73245C12.2417 4.86659 11.0679 4.37935 9.84336 4.37757V4.37757ZM9.84336 12.0001C9.24906 12.0014 8.66771 11.8265 8.17293 11.4973C7.67814 11.1681 7.29215 10.6993 7.0638 10.1506C6.83545 9.60193 6.77502 8.99775 6.89015 8.41471C7.00527 7.83167 7.29079 7.29591 7.71055 6.87521C8.13032 6.45451 8.66547 6.16804 9.24825 6.05161C9.83104 5.93518 10.4353 5.99405 10.9845 6.22118C11.5337 6.4483 12.0031 6.83322 12.3334 7.32727C12.6637 7.82132 12.84 8.40243 12.84 8.99673C12.8409 9.39082 12.764 9.78103 12.6138 10.1454C12.4636 10.5097 12.2431 10.8409 11.9647 11.1199C11.6864 11.3989 11.3557 11.6203 10.9917 11.7713C10.6277 11.9223 10.2375 12.0001 9.84336 12.0001V12.0001ZM14.6435 3.1173C14.43 3.1173 14.2213 3.1807 14.0438 3.2993C13.8663 3.4179 13.728 3.58622 13.6463 3.78344C13.5646 3.98067 13.5432 4.19766 13.5848 4.40703C13.6265 4.61641 13.7293 4.80897 13.8803 4.95992C14.0312 5.11087 14.2235 5.21354 14.4329 5.25518C14.6423 5.29683 14.8593 5.27534 15.0565 5.19364C15.2537 5.11195 15.4223 4.97374 15.5409 4.79625C15.6595 4.61875 15.7228 4.41003 15.7228 4.19655C15.7228 4.05253 15.694 3.90996 15.6381 3.77722C15.5822 3.64449 15.5003 3.52428 15.3972 3.42369C15.2942 3.32311 15.172 3.24424 15.0379 3.19161C14.9038 3.13897 14.7606 3.11372 14.6166 3.1173H14.6435Z" fill="#EFEEEC"/>
</svg>
