<svg width="42" height="42" viewBox="0 0 42 42" fill="none" xmlns="http://www.w3.org/2000/svg">
<circle cx="21" cy="21" r="20" stroke="#6BB767" stroke-width="1.5"/>
<path fill-rule="evenodd" clip-rule="evenodd" d="M18.9012 26.5994C19.6359 26.9043 20.4236 27.0612 21.2192 27.0612C22.4191 27.0644 23.5929 26.7114 24.5922 26.0471C25.5914 25.3827 26.371 24.4368 26.8324 23.3291C27.2938 22.2215 27.4161 21.0018 27.1839 19.8246C26.9518 18.6473 26.3755 17.5654 25.5282 16.7158C24.6808 15.8662 23.6004 15.2872 22.4238 15.0519C21.2472 14.8167 20.0272 14.9358 18.9183 15.3943C17.8094 15.8527 16.8615 16.6299 16.1945 17.6274C15.5276 18.6249 15.1715 19.7978 15.1715 20.9977C15.1694 21.7932 15.3243 22.5814 15.6273 23.3169C15.9303 24.0525 16.3754 24.721 16.9372 25.2843C17.499 25.8476 18.1664 26.2944 18.9012 26.5994ZM19.0321 17.7246C19.6795 17.2921 20.4406 17.0612 21.2192 17.0612C21.7361 17.0612 22.248 17.163 22.7256 17.3609C23.2032 17.5587 23.6371 17.8487 24.0027 18.2142C24.3682 18.5797 24.6582 19.0137 24.856 19.4913C25.0538 19.9689 25.1557 20.4808 25.1557 20.9977C25.1557 21.7763 24.9248 22.5374 24.4922 23.1847C24.0597 23.8321 23.4449 24.3366 22.7256 24.6346C22.0063 24.9325 21.2148 25.0105 20.4512 24.8586C19.6876 24.7067 18.9862 24.3318 18.4356 23.7813C17.8851 23.2307 17.5102 22.5293 17.3583 21.7657C17.2064 21.0021 17.2843 20.2106 17.5823 19.4913C17.8802 18.772 18.3848 18.1572 19.0321 17.7246Z" fill="#6BB767"/>
<path d="M26.6567 15.6596C26.8927 15.9219 27.2175 16.0876 27.5684 16.1247C27.9192 16.0876 28.244 15.9219 28.48 15.6596C28.716 15.3973 28.8466 15.0569 28.8466 14.7041C28.8466 14.3512 28.716 14.0109 28.48 13.7486C28.244 13.4863 27.9192 13.3206 27.5684 13.2834C27.2175 13.3206 26.8927 13.4863 26.6567 13.7486C26.4207 14.0109 26.2902 14.3512 26.2902 14.7041C26.2902 15.0569 26.4207 15.3973 26.6567 15.6596Z" fill="#6BB767"/>
<path fill-rule="evenodd" clip-rule="evenodd" d="M32.3303 28.7279C32.6893 27.8151 32.8984 26.8503 32.9493 25.8707V25.8549C32.9719 25.2601 32.9588 24.8725 32.9387 24.2805C32.9165 23.6242 32.8858 22.7168 32.8858 20.9977V16.1406C32.8569 15.1592 32.6693 14.189 32.3303 13.2676C32.048 12.509 31.6038 11.8211 31.0287 11.2517C30.4473 10.6458 29.7364 10.1791 28.9493 9.88661C28.0279 9.54757 27.0577 9.35996 26.0763 9.33105H16.362C15.3806 9.35996 14.4104 9.54757 13.489 9.88661C12.7323 10.1725 12.0451 10.6162 11.4731 11.1882C10.8672 11.7696 10.4006 12.4804 10.108 13.2676C9.76766 14.188 9.5852 15.1594 9.56836 16.1406V25.8549C9.5852 26.8361 9.76766 27.8074 10.108 28.7279C10.3903 29.4864 10.8345 30.1743 11.4096 30.7438C11.991 31.3497 12.7019 31.8163 13.489 32.1088C14.4104 32.4479 15.3806 32.6355 16.362 32.6644H26.0763C27.0577 32.6355 28.0279 32.4479 28.9493 32.1088C29.7107 31.8007 30.4024 31.3426 30.9832 30.7618C31.564 30.181 32.0221 29.4893 32.3303 28.7279ZM29.5363 12.6965C29.9227 13.0829 30.2206 13.5485 30.4096 14.0612V14.0453C30.6828 14.7433 30.8228 15.4863 30.8223 16.2358V25.7596C30.815 26.5084 30.6753 27.25 30.4096 27.9501C30.2206 28.4628 29.9227 28.9284 29.5363 29.3148C29.1499 29.7012 28.6843 29.9992 28.1715 30.1882C27.4714 30.4539 26.7298 30.5936 25.9811 30.6009H16.4572C15.7361 30.5766 15.0234 30.4373 14.3461 30.1882C13.8334 29.9992 13.3678 29.7012 12.9814 29.3148C12.595 28.9284 12.297 28.4628 12.108 27.9501C11.8505 27.2477 11.7111 26.5076 11.6953 25.7596V16.2358C11.6855 15.4923 11.7982 14.7523 12.0287 14.0453C12.2272 13.5473 12.5294 13.0972 12.9153 12.725C13.3012 12.3528 13.7619 12.067 14.2668 11.8866C14.9669 11.6209 15.7085 11.4812 16.4572 11.4739H25.9811C26.726 11.4609 27.4675 11.5791 28.1715 11.8231C28.6843 12.0121 29.1499 12.3101 29.5363 12.6965Z" fill="#6BB767"/>
</svg>
