<svg width="25" height="15" viewBox="0 0 25 15" fill="none" xmlns="http://www.w3.org/2000/svg">
<g clip-path="url(#clip0_17_2348)">
<path d="M15.1612 0.231404C15.8145 0.336308 16.4589 0.491154 17.0891 0.694611C18.1928 1.03271 19.2472 1.51789 20.2246 2.13738C20.2965 2.18298 20.3798 2.20671 20.4647 2.20573H23.9228H24.2003C24.2003 2.20573 24.0953 2.37278 24.0353 2.45631C23.6342 3.0544 23.3233 3.70955 23.1126 4.40026C23.0967 4.43338 23.0884 4.46973 23.0884 4.50657C23.0884 4.5434 23.0967 4.57975 23.1126 4.61288C23.6159 5.30873 23.9599 6.10931 24.1194 6.95649C24.279 7.80366 24.2503 8.67618 24.0353 9.51071C23.8625 10.2559 23.5446 10.9588 23.1003 11.5781C22.6559 12.1974 22.094 12.7208 21.4473 13.1176C20.5125 13.7187 19.4267 14.035 18.3193 14.0289C17.8459 14.0291 17.3745 13.9678 16.9165 13.8466C15.8123 13.5653 14.8119 12.9667 14.0361 12.1229L13.721 11.766L12.4608 13.6644L11.2231 11.7964H11.1856C10.267 12.9246 8.96831 13.6685 7.53994 13.8846C6.73191 14.0144 5.9058 13.9678 5.11702 13.7479C4.01893 13.4681 3.02714 12.8657 2.26653 12.0166C1.51407 11.1649 1.02391 10.1091 0.856296 8.97916C0.732359 8.19507 0.77067 7.39347 0.96881 6.62516C1.15938 5.91685 1.47724 5.25015 1.90647 4.65844C1.91761 4.63203 1.92335 4.60362 1.92335 4.57491C1.92335 4.5462 1.91761 4.51778 1.90647 4.49138C1.72281 3.85274 1.4446 3.24596 1.08133 2.69171C0.99131 2.55503 0.886292 2.41834 0.788775 2.28166V2.2361H4.3894C4.44257 2.235 4.49443 2.21925 4.53942 2.19054C5.35967 1.65694 6.23817 1.22121 7.15737 0.892041C7.82576 0.655154 8.51015 0.467361 9.20522 0.330121C9.87921 0.197048 10.5606 0.105755 11.2456 0.0567534C12.5532 -0.0328089 13.8665 0.0257711 15.1612 0.231404V0.231404ZM13.661 8.12109C13.659 8.74497 13.7786 9.36314 14.0128 9.9402C14.2471 10.5173 14.5914 11.0419 15.0262 11.4841C15.4609 11.9263 15.9776 12.2774 16.5465 12.5173C17.1154 12.7572 17.7255 12.8812 18.3418 12.8822C18.958 12.8842 19.5686 12.7629 20.1383 12.5251C20.708 12.2873 21.2256 11.9378 21.6614 11.4966C22.0971 11.0555 22.4423 10.5316 22.6773 9.95485C22.9122 9.37813 23.0321 8.76009 23.0301 8.13628C23.0323 7.50438 22.9093 6.87847 22.6682 6.29559C22.4272 5.71271 22.073 5.18472 21.6267 4.74289C21.1805 4.30106 20.6512 3.95436 20.0702 3.72334C19.4892 3.49231 18.8683 3.38165 18.2443 3.39791C17.0257 3.42762 15.8669 3.93808 15.0149 4.82044C14.1629 5.7028 13.6851 6.88721 13.6835 8.12109H13.661ZM6.63229 3.38272C6.01212 3.38763 5.39908 3.51704 4.82867 3.76347C4.25827 4.00989 3.74183 4.36844 3.30927 4.81833C2.8767 5.26822 2.53662 5.80051 2.3087 6.38439C2.08078 6.96826 1.96956 7.59211 1.98149 8.2198C2.0071 9.46792 2.51747 10.6556 3.40204 11.5254C4.2866 12.3953 5.47411 12.8773 6.70729 12.867C7.93762 12.8571 9.11443 12.3563 9.98233 11.4735C10.8502 10.5906 11.3392 9.39696 11.3431 8.15146C11.3481 7.52574 11.2303 6.90524 10.9968 6.32589C10.7632 5.74654 10.4184 5.21985 9.98236 4.77633C9.54632 4.3328 9.02769 3.98125 8.4565 3.74204C7.88531 3.50282 7.27293 3.38069 6.65479 3.38272H6.63229ZM6.86482 2.14498C8.25762 2.2048 9.58527 2.75852 10.6155 3.70925C11.6436 4.65125 12.3148 5.92688 12.5133 7.31618C12.7083 5.94495 13.3655 4.68409 14.3736 3.74721C15.3828 2.80944 16.6815 2.25406 18.0492 2.17535C16.392 1.44795 14.6047 1.07318 12.7983 1.07429C10.7757 1.00794 8.76178 1.37272 6.88733 2.14498H6.86482Z" fill="white"/>
<path d="M18.3571 5.12916C18.7379 5.12816 19.1153 5.20324 19.4674 5.35009C19.8196 5.49695 20.1397 5.71269 20.4093 5.98497C20.679 6.25725 20.893 6.58071 21.0389 6.93682C21.1849 7.29294 21.2601 7.67471 21.2601 8.06027C21.2626 8.81962 20.9739 9.55032 20.4548 10.0985C19.9356 10.6466 19.2266 10.9695 18.4771 10.999C18.0884 11.0122 17.701 10.9462 17.3379 10.8049C16.9749 10.6637 16.6436 10.45 16.3637 10.1766C16.0838 9.90317 15.8611 9.57562 15.7087 9.21338C15.5563 8.85113 15.4773 8.46158 15.4766 8.06786C15.4765 7.2924 15.7793 6.54836 16.3189 5.9979C16.8584 5.44743 17.591 5.13517 18.3571 5.12916V5.12916ZM20.2474 8.06786C20.2484 7.81656 20.2005 7.56753 20.1064 7.33499C20.0123 7.10244 19.8739 6.89093 19.699 6.71253C19.5242 6.53413 19.3164 6.39234 19.0874 6.29526C18.8584 6.19817 18.6128 6.14769 18.3646 6.14669C18.1153 6.14569 17.8684 6.1944 17.6377 6.29002C17.4071 6.38565 17.1973 6.52633 17.0204 6.70402C16.8435 6.88171 16.7028 7.09294 16.6066 7.32564C16.5103 7.55835 16.4602 7.80797 16.4592 8.06027C16.4612 8.56787 16.6607 9.05422 17.0146 9.41387C17.3685 9.77351 17.8481 9.97744 18.3496 9.98143C18.5984 9.98243 18.845 9.93367 19.0753 9.83795C19.3055 9.74223 19.5147 9.60144 19.6911 9.42365C19.8674 9.24586 20.0073 9.03457 20.1028 8.80191C20.1982 8.56925 20.2474 8.31979 20.2474 8.06786V8.06786Z" fill="white"/>
<path d="M6.59508 5.12924C6.97596 5.12824 7.35328 5.20332 7.70544 5.35017C8.05761 5.49703 8.37769 5.71277 8.64736 5.98505C8.91703 6.25733 9.13098 6.58079 9.27696 6.9369C9.42294 7.29302 9.49808 7.67479 9.49808 8.06034C9.49889 8.81662 9.21165 9.5441 8.6961 10.0914C8.18055 10.6388 7.47638 10.9639 6.7301 10.999C6.33705 11.0186 5.94418 10.9571 5.57535 10.8182C5.20653 10.6793 4.86945 10.4659 4.58461 10.191C4.29976 9.91618 4.07309 9.58557 3.91837 9.21929C3.76365 8.85301 3.68411 8.45871 3.68458 8.06034C3.68358 7.67386 3.75829 7.29101 3.90439 6.93394C4.05049 6.57687 4.26507 6.25267 4.53573 5.98009C4.8064 5.70751 5.12776 5.49196 5.48125 5.34592C5.83473 5.19987 6.21331 5.12623 6.59508 5.12924V5.12924ZM8.48541 8.06034C8.48145 7.55012 8.27793 7.06228 7.91942 6.70363C7.5609 6.34498 7.07661 6.14475 6.57258 6.14677C6.07246 6.15275 5.59472 6.35755 5.24247 6.71698C4.89021 7.07641 4.6917 7.56164 4.68976 8.06794C4.69567 8.57622 4.89876 9.06177 5.25523 9.41978C5.6117 9.77779 6.09295 9.97955 6.59508 9.98151C7.09712 9.9795 7.57791 9.77621 7.9322 9.41614C8.28649 9.05606 8.48542 8.56856 8.48541 8.06034V8.06034Z" fill="white"/>
<path d="M18.3569 7.08841C18.6136 7.08841 18.8597 7.19162 19.0412 7.37532C19.2226 7.55903 19.3246 7.80818 19.3246 8.06798C19.3207 8.32454 19.2183 8.5695 19.0391 8.75093C18.8598 8.93237 18.6179 9.03603 18.3644 9.03995C18.2383 9.04095 18.1133 9.0168 17.9964 8.96888C17.8795 8.92096 17.7731 8.8502 17.6833 8.76065C17.5934 8.67109 17.5219 8.5645 17.4727 8.44696C17.4235 8.32941 17.3977 8.20322 17.3968 8.07557C17.3937 7.94638 17.4164 7.8179 17.4634 7.69774C17.5104 7.57759 17.5807 7.46823 17.6703 7.37615C17.7599 7.28406 17.8668 7.21114 17.9848 7.16171C18.1027 7.11229 18.2293 7.08736 18.3569 7.08841V7.08841Z" fill="white"/>
<path d="M6.58693 7.08093C6.84427 7.08092 7.09117 7.18389 7.27383 7.36738C7.4565 7.55086 7.56011 7.80001 7.56209 8.0605C7.5621 8.321 7.46039 8.57094 7.27913 8.75586C7.09787 8.94077 6.85176 9.04565 6.59443 9.04766C6.46581 9.04971 6.33809 9.02558 6.21886 8.97669C6.09963 8.92781 5.99132 8.85517 5.90036 8.76309C5.8094 8.67102 5.73766 8.56137 5.68937 8.44068C5.64108 8.31999 5.61723 8.1907 5.61926 8.0605C5.61723 7.93129 5.64088 7.80299 5.6888 7.68322C5.73671 7.56345 5.8079 7.45464 5.89817 7.36327C5.98843 7.2719 6.09592 7.19982 6.21424 7.15132C6.33256 7.10282 6.4593 7.07888 6.58693 7.08093Z" fill="white"/>
</g>
<defs>
<clipPath id="clip0_17_2348">
<rect width="23.464" height="14.0784" fill="white" transform="translate(0.78125 0.0112305)"/>
</clipPath>
</defs>
</svg>
