<svg width="42" height="42" viewBox="0 0 42 42" fill="none" xmlns="http://www.w3.org/2000/svg">
<circle cx="21" cy="21" r="20" stroke="#6BB767" stroke-width="1.5"/>
<path d="M26.74 25.6727C27.0709 25.4403 27.3492 25.1411 27.5571 24.7943V24.7467C27.6988 24.3501 27.7371 23.924 27.6682 23.5086C27.604 23.4057 27.4772 23.3445 27.2796 23.2491C27.2332 23.2267 27.1829 23.2024 27.1286 23.1752C26.8428 23.0324 25.4301 22.3498 25.1762 22.2546C24.9222 22.1594 24.7317 22.1117 24.5413 22.3975C24.3508 22.6832 23.7952 23.3816 23.6365 23.5086C23.4778 23.6355 23.3032 23.6514 23.0174 23.5086C22.1808 23.171 21.4078 22.6933 20.7317 22.0959C20.1109 21.5194 19.5763 20.8565 19.1444 20.1276C18.9857 19.8419 19.1444 19.6832 19.2714 19.5562C19.369 19.4586 19.4853 19.3142 19.5988 19.1733C19.633 19.1308 19.6669 19.0887 19.7 19.0482C19.8192 18.9052 19.9155 18.7445 19.9857 18.5721C20.0247 18.4959 20.045 18.4116 20.045 18.326C20.045 18.2405 20.0247 18.1561 19.9857 18.08C19.9456 18.0078 19.7759 17.5953 19.589 17.1413C19.4061 16.6967 19.2068 16.2123 19.0968 15.9689C18.8746 15.4768 18.6365 15.4768 18.4619 15.4768H18.0175C17.8731 15.4785 17.7307 15.5104 17.5994 15.5706C17.4682 15.6307 17.351 15.7178 17.2555 15.826C16.9313 16.1307 16.6748 16.5001 16.5025 16.9102C16.3302 17.3204 16.2461 17.7622 16.2555 18.207C16.3479 19.2777 16.7506 20.2982 17.4143 21.1435C18.6356 22.9679 20.3091 24.4445 22.2714 25.4292C22.7879 25.6619 23.318 25.8633 23.8587 26.0324C24.4334 26.2137 25.0437 26.2518 25.6365 26.1435C26.0332 26.0655 26.4092 25.9051 26.74 25.6727Z" fill="#6BB767"/>
<path fill-rule="evenodd" clip-rule="evenodd" d="M16.5571 30.6832C18.2224 31.6109 20.0953 32.1023 22.0016 32.1117C24.2509 32.0961 26.4452 31.4152 28.3082 30.1548C30.1713 28.8944 31.6197 27.1109 32.4711 25.0289C33.3225 22.9469 33.5387 20.6595 33.0926 18.4549C32.6465 16.2502 31.558 14.2269 29.9642 12.6397C28.3703 11.0525 26.3425 9.97238 24.136 9.53545C21.9295 9.09852 19.6431 9.32428 17.5646 10.1843C15.4862 11.0443 13.7088 12.5002 12.4561 14.3684C11.2035 16.2367 10.5317 18.4338 10.5254 20.6832C10.5412 22.6846 11.0891 24.6458 12.1127 26.3657L10.5254 32.2705L16.5571 30.6832ZM17.2263 12.6177C18.671 11.7546 20.3187 11.2897 22.0016 11.2705L21.9857 11.0959C24.5116 11.0959 26.934 12.0993 28.7201 13.8853C30.5061 15.6714 31.5095 18.0938 31.5095 20.6197C31.5095 23.1455 30.5061 25.568 28.7201 27.354C26.934 29.1401 24.5116 30.1435 21.9857 30.1435C20.3101 30.1309 18.6676 29.6764 17.2238 28.826L16.8746 28.6197L13.2555 29.6038L14.2079 26.1276L13.9857 25.7625C13.1077 24.3268 12.6257 22.684 12.589 21.0015C12.5523 19.3189 12.9621 17.6567 13.7767 16.184C14.5912 14.7113 15.7815 13.4808 17.2263 12.6177Z" fill="#6BB767"/>
</svg>
