<svg width="132" height="29" viewBox="0 0 132 29" fill="none" xmlns="http://www.w3.org/2000/svg">
<g style="mix-blend-mode:multiply">
<path d="M17.6309 1.77734H22.414V23.2113H17.6309L7.42033 9.78198V23.2113H2.63721V1.77734H7.11183L17.6281 15.5752V1.77734H17.6309Z" fill="#343434"/>
</g>
<g style="mix-blend-mode:multiply">
<path d="M33.3588 17.6774C34.156 18.6684 35.2289 19.1653 36.5776 19.1653C37.9262 19.1653 38.9937 18.6712 39.7827 17.6774C40.569 16.6864 40.9621 15.3323 40.9621 13.615V1.77734H45.7452V13.7679C45.7452 16.8748 44.888 19.2609 43.1707 20.9262C41.4535 22.5916 39.2558 23.4243 36.5776 23.4243C33.8993 23.4243 31.6962 22.5861 29.9707 20.9098C28.2426 19.2336 27.3799 16.8529 27.3799 13.7652V1.77734H32.163V13.6123C32.163 15.3295 32.5616 16.6837 33.3588 17.6747V17.6774Z" fill="#343434"/>
</g>
<g style="mix-blend-mode:multiply">
<path d="M59.7889 5.9189V23.2113H55.0058V5.9189H48.9341V1.77734H65.8579V5.91617H59.7862L59.7889 5.9189Z" fill="#343434"/>
</g>
<g style="mix-blend-mode:multiply">
<path d="M86.7378 8.89197C86.7378 12.3264 85.3782 14.5433 82.659 15.5452L88.0864 23.2113H82.2004L77.4473 16.3752H74.1357V23.2113H69.3525V1.77734H77.4773C80.808 1.77734 83.1859 2.33974 84.6056 3.46454C86.0252 4.58934 86.7378 6.39666 86.7378 8.89197ZM80.9745 11.4364C81.567 10.904 81.8646 10.0632 81.8646 8.90562C81.8646 7.74806 81.5588 6.95906 80.9445 6.53044C80.3302 6.10181 79.2573 5.88613 77.7257 5.88613H74.1384V12.2336H77.6329C79.2682 12.2336 80.3821 11.9688 80.9745 11.4364Z" fill="#343434"/>
</g>
<g style="mix-blend-mode:multiply">
<path d="M91.4146 4.61392C90.8931 4.09247 90.6338 3.45363 90.6338 2.69739C90.6338 1.94116 90.8931 1.30232 91.4146 0.780868C91.936 0.25942 92.5749 6.10352e-05 93.3311 6.10352e-05C94.0874 6.10352e-05 94.7262 0.25942 95.2476 0.780868C95.7691 1.30232 96.0284 1.94116 96.0284 2.69739C96.0284 3.45363 95.7691 4.09247 95.2476 4.61392C94.7262 5.13537 94.0874 5.39473 93.3311 5.39473C92.5749 5.39473 91.936 5.13537 91.4146 4.61392ZM95.6299 23.2086H91.0296V6.71609H95.6299V23.2113V23.2086Z" fill="#343434"/>
</g>
<g style="mix-blend-mode:multiply">
<path d="M112.494 1.60321H118.257L111.574 11.9366L118.808 23.0372H112.982L108.415 15.9853L103.877 23.0372H98.1143L105.319 12.0595L98.6029 1.60321H104.336L108.415 7.95068L112.494 1.60321V1.60321Z" fill="#343434"/>
</g>
<g style="mix-blend-mode:multiply">
<path d="M123.345 2.71101V7.24023H122.442V2.71101H120.817V1.88379H124.973V2.71101H123.348H123.345Z" fill="#343434"/>
</g>
<g style="mix-blend-mode:multiply">
<path d="M126.857 7.24023H125.953V1.88379H127.365L128.981 5.24999L130.597 1.88379H132V7.24023H131.097V3.055L129.227 6.77339H128.721L126.86 3.055V7.24023H126.857Z" fill="#343434"/>
</g>
</svg>
