<svg width="225" height="79" viewBox="0 0 225 79" fill="none" xmlns="http://www.w3.org/2000/svg">
<g id="Group 2139">
<path id="Vector" d="M219.478 31.2918C219.704 31.2918 219.934 31.2296 220.136 31.0962L223.695 28.7844C224.256 28.4209 224.415 27.671 224.052 27.1098C223.688 26.5485 222.938 26.3898 222.377 26.7532L218.818 29.065C218.257 29.4285 218.098 30.1784 218.462 30.7397C218.694 31.0962 219.083 31.2918 219.478 31.2918Z" fill="#365F3D"/>
<path id="Vector_2" d="M19.0696 33.3274C18.5934 33.9508 18.1241 34.5788 17.6687 35.2183C15.6329 38.0845 13.8501 41.1302 12.4584 44.3621C11.4072 46.9086 10.6113 49.554 10.1443 52.2706C9.94646 53.4162 8.59847 53.9499 7.59093 53.7199C7.09636 53.6071 6.60179 53.1954 6.35105 52.7652C6.05201 52.2545 6.04511 51.7301 6.14172 51.1665C6.33265 50.0531 6.57648 48.949 6.87552 47.8586C8.03949 43.5823 9.96027 39.5015 12.3204 35.7589C14.3585 32.5223 16.7324 29.4836 19.2605 26.6174C22.0117 23.4981 25.0136 20.602 28.2456 17.9842C31.1026 15.6678 34.1091 13.5469 37.2537 11.6445C35.2271 10.5289 33.1729 9.48453 31.0474 8.5736C27.6866 7.1796 24.1878 6.10765 20.5832 5.58547C18.0873 5.27263 15.5662 5.24273 13.068 5.55097C11.1725 5.83161 9.31157 6.31008 7.53802 7.03698C6.7306 7.39123 5.92319 7.79149 5.20319 8.29986C4.96855 8.49999 4.75002 8.71852 4.54759 8.95315C4.43488 9.12108 4.33136 9.2936 4.23935 9.47303C4.19794 9.59495 4.16344 9.71916 4.13353 9.84568C4.12893 9.9515 4.12893 10.0573 4.13353 10.1608C4.16344 10.2896 4.20024 10.4185 4.24165 10.545C4.33826 10.7382 4.44868 10.9222 4.5706 11.1017C4.99156 11.6031 5.46082 12.0586 5.96919 12.4727C6.6708 12.981 7.4253 13.4066 8.21662 13.7608C9.5232 14.2853 10.8896 14.6281 12.2813 14.8397C14.255 15.0789 16.254 15.0605 18.2276 14.819C18.5658 14.7684 18.9016 14.7155 19.2375 14.6511C20.3831 14.4348 21.4205 14.9593 21.7909 16.1003C21.9519 16.5994 21.8415 17.255 21.5815 17.7013C21.34 18.1154 20.827 18.5639 20.3416 18.6559C19.7252 18.7733 19.1041 18.8607 18.4807 18.9412C14.2987 19.4933 9.90966 19.07 6.04741 17.3148C4.10363 16.4315 2.36458 15.0812 1.0994 13.3583C0.156264 12.0816 -0.168082 10.5312 0.0803531 8.98306C0.285082 7.70638 1.07179 6.4849 1.99423 5.60388C2.89366 4.74125 3.98861 4.12707 5.10887 3.60259C6.27974 3.05511 7.49201 2.58815 8.73419 2.23159C11.0874 1.5599 13.5626 1.23095 16.0055 1.17804C21.0271 1.06763 26.0511 2.20629 30.7207 3.99365C33.1729 4.93218 35.579 6.02024 37.8932 7.26011C39.1077 7.91111 40.3085 8.592 41.5254 9.2361C44.2306 7.81909 47.0071 6.54241 49.8296 5.37154C53.747 3.74521 57.7611 2.35351 61.8189 1.12284C63.015 0.759384 64.2181 0.402833 65.4534 0.209606C67.0429 -0.0365294 68.7567 -0.215955 70.2335 0.573058C72.7799 1.93485 72.6603 5.39915 71.3146 7.55686C68.6946 11.7619 63.9398 13.8759 59.3161 15.0444C54.4141 16.282 49.0014 16.6063 44.157 14.9386C43.2897 14.6419 42.4455 14.2899 41.6174 13.9081C38.3808 15.7253 35.2662 17.7542 32.3172 20.0131C31.2659 20.8344 30.2331 21.6786 29.2278 22.555C25.4967 25.8008 22.1037 29.4238 19.0673 33.3251M50.614 9.51213C49.2637 10.0872 47.9249 10.6876 46.5999 11.3225C47.2785 11.4996 47.9686 11.6422 48.6679 11.7504C50.7336 11.9965 52.8177 11.9551 54.8811 11.6997C57.3907 11.3363 59.9096 10.7037 62.2582 9.74677C63.3716 9.2522 64.432 8.64491 65.412 7.91801C66.1274 7.33832 66.7853 6.69423 67.3673 5.97883C67.5927 5.67289 67.7974 5.35544 67.9654 5.01499C68.0275 4.83557 68.0781 4.65154 68.1172 4.46521C68.1218 4.3686 68.1241 4.27199 68.1218 4.17767C68.0965 4.17077 68.0689 4.16387 68.0436 4.15927C67.5697 4.12937 67.0935 4.15697 66.622 4.20758C65.274 4.41461 63.9651 4.80796 62.6631 5.20592C58.5823 6.4504 54.5498 7.8628 50.614 9.51213" fill="#365F3D"/>
<path id="Vector_3" d="M125.975 35.8346C125.168 34.62 123.992 33.67 122.552 33.3226C119.309 32.5382 116.452 34.7005 114.37 36.9433C113.054 38.3627 112.001 40.0097 110.844 41.5555C110.745 41.6866 110.643 41.8177 110.544 41.9489C109.514 43.2647 108.403 44.5344 107.096 45.5834C106.611 45.9376 106.098 46.2528 105.555 46.5104C105.472 46.5426 105.389 46.5771 105.307 46.6047C104.791 46.7819 104.347 47.0786 104.067 47.5594C103.807 48.0033 103.696 48.6612 103.857 49.1604C104.021 49.6619 104.331 50.1472 104.812 50.4003C105.288 50.651 105.886 50.7913 106.413 50.6096C110.291 49.2685 112.889 45.795 115.205 42.6022C115.644 41.9972 116.079 41.3876 116.53 40.7895C117.259 39.8717 118.087 39.0136 118.998 38.2752C119.408 37.9739 119.838 37.7071 120.298 37.4885C120.505 37.4149 120.719 37.3551 120.935 37.3091C121.08 37.2999 121.223 37.3022 121.365 37.3091C121.496 37.3367 121.627 37.3735 121.754 37.4149C121.864 37.4724 121.973 37.5345 122.076 37.6035C122.18 37.6979 122.276 37.7968 122.37 37.9026C122.492 38.0843 122.601 38.2706 122.697 38.4662C122.858 38.8986 122.973 39.3472 123.047 39.805C123.109 40.4651 123.102 41.1299 123.033 41.7901C122.89 42.6965 122.653 43.5959 122.324 44.4516C122.09 44.9692 121.811 45.4661 121.48 45.9284C121.25 46.1999 120.999 46.4506 120.73 46.6829C120.464 46.8693 120.183 47.0349 119.888 47.1752C119.638 47.2649 119.38 47.3362 119.118 47.3891C118.922 47.4029 118.729 47.4029 118.534 47.3891C118.508 47.3845 118.483 47.3822 118.46 47.3753C117.915 47.258 117.351 47.2971 116.859 47.5847C116.429 47.8377 116.017 48.33 115.904 48.8245C115.782 49.3559 115.81 49.954 116.114 50.4256C116.397 50.8649 116.827 51.2675 117.353 51.3802C119.056 51.746 120.769 51.4469 122.29 50.605C123.659 49.8459 124.779 48.6405 125.543 47.2856C126.263 46.0066 126.73 44.5758 126.996 43.1381C127.215 41.9558 127.321 40.7458 127.171 39.5496C127.01 38.2499 126.713 36.9456 125.975 35.8369" fill="#365F3D"/>
<path id="Vector_4" d="M101.54 36.357C102.093 36.3317 102.612 36.6031 103.008 36.9643C103.39 37.3139 103.615 37.9235 103.615 38.4319C103.615 38.9748 103.381 39.513 103.008 39.8995C102.707 40.2123 102.424 40.539 102.155 40.8771C101.589 41.6523 101.11 42.4851 100.719 43.3615C100.551 43.7847 100.411 44.2149 100.324 44.6635C100.298 44.9717 100.298 45.2777 100.324 45.5859C100.367 45.7998 100.425 46.0115 100.496 46.2185C100.558 46.3404 100.627 46.46 100.703 46.575C100.791 46.674 100.885 46.766 100.984 46.8534C101.214 47.0213 101.402 47.2283 101.552 47.4768C101.621 47.6424 101.692 47.808 101.761 47.9736C101.934 48.5073 101.807 49.0916 101.552 49.5747C101.315 50.0232 100.793 50.3959 100.312 50.5293C99.8474 50.6581 99.1182 50.6213 98.7133 50.32C98.4235 50.1037 98.1245 49.8898 97.8714 49.6299C97.6276 49.3791 97.416 49.0916 97.2112 48.8087C96.8938 48.3647 96.6775 47.8425 96.4981 47.3319C96.3279 46.8511 96.2635 46.3496 96.2014 45.8435C95.532 46.4347 94.8626 47.0236 94.184 47.6033C93.2271 48.4199 92.2724 49.271 91.2189 49.9611C90.14 50.6696 88.9139 51.1734 87.6143 51.2424C86.119 51.3229 84.5755 50.5316 83.8164 49.2319C83.1562 48.1002 83.1424 46.6901 83.5128 45.4594C83.8233 44.4242 84.3455 43.5317 84.9919 42.6783C85.659 41.795 86.3514 40.93 86.9863 40.0237C87.4118 39.4164 87.8213 38.7861 88.1387 38.1121C88.1939 37.9626 88.2422 37.8108 88.2813 37.6544C88.2192 37.636 88.1571 37.6199 88.095 37.6061C87.9892 37.6015 87.8857 37.6015 87.7799 37.6061C87.5245 37.659 87.2761 37.7349 87.0323 37.8269C85.5854 38.4779 84.2374 39.3934 82.9768 40.3527C82.312 40.8725 81.6633 41.4108 81.0307 41.9721C78.758 43.9918 76.6762 46.2369 74.8037 48.6338C74.5024 49.0295 74.2056 49.4275 73.9181 49.8323C73.7341 50.1452 73.4856 50.3936 73.1728 50.5776C73.0072 50.6466 72.8415 50.7179 72.6759 50.7869C72.1422 50.9595 71.558 50.833 71.0749 50.5776C70.6263 50.3407 70.2537 49.8185 70.1203 49.3377C69.9799 48.8248 70.0535 48.1968 70.3296 47.7367C70.6539 47.2007 70.9323 46.6395 71.1853 46.0644C71.4774 45.3444 71.7351 44.6129 71.9743 43.8745C72.1422 43.3546 72.3033 42.8301 72.462 42.3079C70.8564 43.603 69.2277 44.8751 67.5853 46.1265C65.4483 47.7528 63.2768 49.3377 61.0823 50.8859C60.291 52.5076 59.4996 54.127 58.6945 55.7419C57.4431 58.2492 56.1343 60.7267 54.7495 63.1627C53.0449 66.1623 51.2622 69.1229 49.4403 72.0535C48.7042 73.2359 47.8899 74.3814 46.9536 75.412C46.3625 76.0607 45.7115 76.6219 45.0145 77.1533C44.2853 77.71 43.5032 78.1079 42.6543 78.4553C41.8124 78.798 40.8877 78.9614 39.9837 78.9959C39.3971 79.0189 38.8151 78.9407 38.2354 78.851C37.8444 78.7911 37.4533 78.6968 37.0783 78.5634C35.3876 77.9653 33.9223 76.8313 33.0459 75.244C32.641 74.5125 32.3374 73.7005 32.2108 72.8747C32.128 72.3433 32.059 71.8119 32.0705 71.2737C32.082 70.7239 32.1579 70.1718 32.2546 69.6335C32.4363 68.6237 32.8319 67.6437 33.2966 66.7351C33.8418 65.6701 34.5756 64.6947 35.3646 63.7999C36.8253 62.1437 38.6265 60.844 40.4391 59.6041C42.6543 58.0882 44.9271 56.6551 47.1837 55.2013C49.2195 53.8901 51.2484 52.5674 53.2635 51.224C53.2036 51.2378 53.1438 51.2539 53.084 51.2677C51.9477 51.5092 50.7607 51.5898 49.6266 51.2815C48.3776 50.9411 47.37 50.159 46.6454 49.1031C46.3533 48.6775 46.1485 48.1784 45.9898 47.6907C45.8242 47.1846 45.7552 46.6395 45.7138 46.1127C45.6517 45.3329 45.7943 44.5554 45.9668 43.7985C46.1163 43.1522 46.3004 42.5127 46.5212 41.8824C46.1692 41.9951 45.8173 42.1032 45.4607 42.2021C44.3796 42.5058 43.2846 42.7358 42.1805 42.9152C41.4306 44.3345 40.5403 45.6618 39.5259 46.9063C38.6725 47.9529 37.7017 48.8455 36.6252 49.6575C34.9597 50.9135 32.8825 51.76 30.78 51.7761C30.2487 51.7807 29.7104 51.7094 29.1882 51.6128C28.8547 51.5507 28.528 51.4517 28.2129 51.3229C27.2927 50.9457 26.4416 50.458 25.763 49.7104C24.4518 48.2589 23.8331 46.2967 24.0102 44.3506C24.0102 43.9757 24.1068 43.626 24.2931 43.3017C24.4012 43.1614 24.5093 43.021 24.6175 42.8807C24.9924 42.4736 25.5491 42.2964 26.0851 42.2734C26.6026 42.2504 27.1938 42.5219 27.5527 42.8807C27.8977 43.2258 28.206 43.8469 28.16 44.3483C28.1255 44.7187 28.1232 45.089 28.1554 45.4571C28.2037 45.717 28.275 45.9701 28.3624 46.2208C28.4498 46.3956 28.551 46.5658 28.6614 46.7292C28.7811 46.8649 28.9076 46.9914 29.041 47.1087C29.202 47.2168 29.3699 47.3158 29.5448 47.4032C29.7748 47.486 30.0094 47.5504 30.251 47.5987C30.5799 47.6263 30.9112 47.6263 31.2401 47.5987C31.7347 47.5113 32.2177 47.3733 32.6847 47.1892C33.2874 46.9086 33.8556 46.5612 34.3939 46.1702C35.2588 45.4732 36.0294 44.6704 36.7195 43.8031C36.8391 43.6444 36.9564 43.4834 37.0714 43.3224C35.7373 43.3017 34.4054 43.1798 33.0827 42.9543C32.2615 42.814 31.4448 42.6208 30.6581 42.3424C29.9841 42.1032 29.2687 41.8318 28.6844 41.4085C28.229 41.0773 27.9 40.8058 27.5941 40.3274C27.1409 39.6189 27.157 38.7631 27.295 37.9649C27.4998 36.7802 28.3371 35.8118 29.2756 35.1263C29.8691 34.6938 30.5408 34.3488 31.2125 34.0521C32.0636 33.6748 32.9286 33.3298 33.8395 33.1204C34.686 32.9249 35.5854 32.7915 36.4573 32.8444C37.9065 32.9318 39.4224 33.2998 40.6485 34.105C41.3846 34.5903 41.9458 35.1401 42.4565 35.8532C42.6014 36.0556 42.721 36.2742 42.8223 36.5019C42.9902 36.8884 43.1604 37.2702 43.2386 37.6866C43.2892 37.9511 43.3214 38.2088 43.3398 38.4641C44.8581 38.096 46.3487 37.6038 47.7956 37.008C48.8008 36.5709 49.7808 36.0855 50.7377 35.5542C52.2628 34.3166 54.0617 33.339 56.0284 33.0606C56.6035 32.9801 57.174 32.9042 57.756 32.9226C58.3403 32.941 58.9338 33.0146 59.5042 33.1411C60.0425 33.2607 60.5486 33.4747 61.0501 33.6978C61.3974 33.8542 61.731 34.0429 62.0438 34.2614C62.9547 34.9009 63.6908 35.6301 64.3211 36.5502C64.6317 37.0034 64.8456 37.491 65.0549 37.9994C65.1953 38.3399 65.308 38.6895 65.3724 39.0553C65.5679 40.1433 65.5679 41.2521 65.2114 42.3125C65.1377 42.5311 65.0549 42.7404 64.9629 42.9451C65.446 42.5794 65.9291 42.2113 66.4098 41.841C67.0447 41.351 67.675 40.8564 68.3053 40.3573C70.8104 38.3698 73.2648 36.3202 75.6663 34.2085C76.0965 33.8289 76.5635 33.6265 77.134 33.6012C77.686 33.5759 78.2059 33.845 78.6016 34.2085C78.9834 34.5581 79.2089 35.1677 79.2089 35.6761C79.2089 35.7198 79.2043 35.7635 79.202 35.8072C79.2089 36.1914 79.1168 36.5893 78.9259 36.9068C78.6016 37.4427 78.3232 38.004 78.0702 38.5791C77.9713 38.8229 77.8747 39.0691 77.785 39.3152C79.0501 38.1673 80.3797 37.0908 81.7783 36.1132C82.7031 35.4645 83.6669 34.8687 84.679 34.3649C85.4059 34.0037 86.1719 33.6679 86.9817 33.5506C87.3152 33.5023 87.6534 33.4448 87.9915 33.4494C88.3159 33.4517 88.6448 33.5046 88.9622 33.5552C89.3303 33.615 89.6638 33.7415 90.0066 33.8864C90.7864 34.2154 91.4029 34.7007 91.8837 35.4C92.2747 35.9659 92.438 36.6928 92.4633 37.3714C92.4748 37.7234 92.4127 38.0822 92.3552 38.425C92.323 38.6136 92.2793 38.7999 92.2218 38.9817C92.0539 39.5107 91.8239 40.026 91.5685 40.5183C91.0072 41.5925 90.2619 42.5702 89.5281 43.5294C88.8472 44.4196 88.0858 45.2869 87.6005 46.3036C87.5268 46.5106 87.467 46.72 87.421 46.9339C87.4187 46.9845 87.4164 47.0374 87.4164 47.088C87.4739 47.088 87.5314 47.088 87.5913 47.0857C87.7845 47.042 87.9754 46.9845 88.1617 46.9178C88.6701 46.674 89.1463 46.3726 89.5994 46.0391C90.3332 45.4594 91.0417 44.8429 91.7502 44.231C94.5382 41.8226 97.2273 39.2991 100.077 36.9597C100.337 36.702 100.641 36.5249 100.993 36.426C101.177 36.4007 101.361 36.3777 101.545 36.3524M31.8704 38.3767C32.733 38.678 33.6348 38.8712 34.5365 39.0093C36.0846 39.2025 37.6511 39.2301 39.2084 39.122C39.2153 38.984 39.2176 38.8459 39.2084 38.7079C39.1831 38.5906 39.1532 38.4756 39.1141 38.3606C39.0612 38.2571 39.0014 38.1581 38.937 38.0615C38.8358 37.9488 38.7254 37.843 38.6127 37.7418C38.4033 37.5992 38.1848 37.4726 37.9594 37.3622C37.5522 37.2104 37.1336 37.1 36.7057 37.0241C36.2755 36.985 35.8477 36.9873 35.4152 37.031C34.6699 37.1621 33.943 37.3875 33.2391 37.6682C32.7721 37.8752 32.3052 38.1075 31.8681 38.379M51.7153 47.3181C52.4675 47.1823 53.1898 46.9362 53.8983 46.651C55.7639 45.8458 57.5421 44.8268 59.1638 43.6007C59.6975 43.1683 60.2035 42.7013 60.6452 42.1745C60.8453 41.8939 61.0248 41.5994 61.1743 41.2912C61.2456 41.0865 61.3054 40.8771 61.3491 40.6632C61.3606 40.4723 61.3606 40.279 61.3491 40.0881C61.3008 39.8512 61.2387 39.6166 61.1559 39.3888C61.0225 39.1128 60.8683 38.8505 60.6935 38.5998C60.4681 38.3353 60.2219 38.0891 59.9574 37.866C59.6837 37.6751 59.3961 37.5048 59.0948 37.3576C58.7957 37.2495 58.4898 37.1667 58.1793 37.1069C57.7491 37.0678 57.3166 37.0701 56.8865 37.1069C56.3505 37.1989 55.8283 37.3461 55.3199 37.5394C54.6989 37.8246 54.1123 38.1719 53.5648 38.5768C53.4636 38.6596 53.3647 38.7447 53.2681 38.8321C53.2451 38.8528 53.222 38.8735 53.1967 38.8942C53.0012 39.0714 52.8126 39.2554 52.6309 39.4486C52.4537 39.6396 52.2835 39.8374 52.1202 40.0398C51.5658 40.8012 51.1034 41.6247 50.7193 42.4851C50.4755 43.09 50.2661 43.7065 50.1005 44.3391C50.0154 44.6635 49.9303 44.997 49.8682 45.3283C49.8475 45.5836 49.8475 45.8412 49.8659 46.0966C49.9027 46.276 49.9487 46.4531 50.0062 46.6257C50.0568 46.7246 50.112 46.8212 50.1718 46.9155C50.2339 46.9822 50.2983 47.0489 50.365 47.111C50.4294 47.1524 50.4962 47.1915 50.5652 47.226C50.6871 47.2651 50.809 47.2996 50.9332 47.325C51.1955 47.3411 51.4554 47.3365 51.7176 47.3134M48.2418 66.0496C49.461 64.0276 50.6595 61.9941 51.8073 59.9308C52.5941 58.5184 53.3555 57.0898 54.0962 55.6521C53.107 56.3054 52.1156 56.9564 51.1218 57.6005C49.0262 58.9577 46.9214 60.2988 44.8304 61.6629C43.4042 62.5945 41.9757 63.5331 40.6185 64.5636C39.6041 65.3664 38.6679 66.2636 37.8582 67.2734C37.4142 67.8784 37.0254 68.5179 36.708 69.1965C36.5033 69.7186 36.3491 70.2546 36.2525 70.8067C36.218 71.1978 36.2157 71.5911 36.2525 71.9822C36.3123 72.2973 36.3951 72.6056 36.5056 72.9046C36.6252 73.1507 36.7632 73.3854 36.9196 73.6108C37.0852 73.804 37.267 73.9835 37.4602 74.1491C37.6718 74.294 37.895 74.4251 38.125 74.5401C38.4677 74.6667 38.822 74.7587 39.1831 74.8231C39.5466 74.8553 39.91 74.8576 40.2735 74.8277C40.6439 74.7587 41.005 74.6598 41.357 74.5286C41.8469 74.3009 42.307 74.0203 42.7441 73.7005C43.448 73.1208 44.0759 72.4537 44.6464 71.7429C44.7407 71.6187 44.8327 71.4968 44.9248 71.3703C45.3549 70.7699 45.7506 70.1442 46.1347 69.5139C46.8386 68.3592 47.5471 67.2067 48.2441 66.0496" fill="#365F3D"/>
<path id="Vector_5" d="M104.281 35.423H104.318C104.881 35.423 105.472 35.1768 105.873 34.7789C106.254 34.397 106.542 33.7713 106.517 33.2239C106.491 32.6557 106.305 32.0668 105.873 31.6688C105.442 31.2732 104.913 31.0247 104.318 31.0247H104.281C103.717 31.0247 103.126 31.2709 102.726 31.6688C102.344 32.0507 102.056 32.6764 102.082 33.2239C102.107 33.792 102.293 34.3809 102.726 34.7789C103.156 35.1745 103.685 35.423 104.281 35.423Z" fill="#365F3D"/>
<path id="Vector_6" d="M110.547 30.5602C110.558 30.597 110.568 30.6293 110.574 30.65C110.57 30.6247 110.563 30.5993 110.561 30.5832C110.556 30.5763 110.551 30.5671 110.547 30.5602Z" fill="#365F3D"/>
<path id="Vector_7" d="M110.667 35.2734C110.186 35.715 109.498 35.7173 109.015 35.2734C108.564 34.8593 108.564 34.0358 109.015 33.6217C109.217 33.4354 109.408 33.2399 109.588 33.0306C109.624 32.9891 109.659 32.9454 109.693 32.9017C109.763 32.8051 109.832 32.7085 109.896 32.6096C110.027 32.4095 110.147 32.2024 110.252 31.9885C110.303 31.885 110.437 31.51 110.305 31.8919C110.338 31.7953 110.381 31.6987 110.414 31.6021C110.473 31.4226 110.524 31.2386 110.561 31.0523C110.535 31.1972 110.565 31.0753 110.572 30.9971C110.579 30.9557 110.584 30.9166 110.593 30.8751C110.586 30.9189 110.579 30.9534 110.572 30.9833C110.579 30.9004 110.584 30.8153 110.581 30.7325C110.581 30.7164 110.581 30.6888 110.577 30.6612C110.577 30.6589 110.577 30.6566 110.577 30.6543C110.577 30.6543 110.577 30.6543 110.577 30.6566C110.577 30.6405 110.575 30.6221 110.572 30.606C110.568 30.5991 110.565 30.5922 110.561 30.5876C110.561 30.583 110.561 30.5807 110.558 30.5761C110.554 30.5692 110.549 30.5646 110.545 30.5577C110.545 30.5577 110.545 30.5623 110.545 30.5646C110.54 30.5577 110.535 30.5508 110.531 30.5416C110.531 30.5416 110.531 30.5393 110.531 30.537C110.209 30.0631 110.225 29.4719 110.637 29.0234C111.044 28.5794 111.886 28.561 112.288 29.0234C113.038 29.886 113.027 31.0776 112.7 32.1219C112.323 33.325 111.594 34.4269 110.669 35.2757M110.524 30.4726C110.529 30.4933 110.533 30.5071 110.538 30.5255C110.538 30.5255 110.542 30.5301 110.542 30.5324C110.535 30.514 110.529 30.4933 110.524 30.4749M110.584 30.6451C110.584 30.6612 110.588 30.675 110.588 30.6865C110.618 30.7486 110.623 30.6934 110.584 30.629C110.584 30.629 110.581 30.6244 110.579 30.6221C110.579 30.629 110.579 30.6382 110.581 30.6474" fill="#365F3D"/>
<path id="Vector_8" d="M110.572 30.9951C110.572 30.9951 110.572 30.9858 110.572 30.9835C110.568 31.0114 110.563 31.0346 110.561 31.0532C110.561 31.0416 110.565 31.0323 110.568 31.0207C110.568 31.0137 110.57 31.0044 110.572 30.9974" fill="#365F3D"/>
<path id="Vector_9" d="M222.522 48.2198C223.051 48.3394 223.477 48.7305 223.762 49.1744C224.047 49.6161 224.107 50.2763 223.971 50.7732C223.907 51.0423 223.783 51.2792 223.599 51.4794C223.451 51.7048 223.258 51.8842 223.017 52.0154C222.221 52.6157 221.386 53.1678 220.495 53.6256C219.612 54.0787 218.678 54.4675 217.717 54.7251C216.849 54.9575 215.945 55.084 215.053 55.1392C214.363 55.1829 213.67 55.1668 212.98 55.1231C211.86 55.0518 210.818 54.8333 209.836 54.2674C208.72 53.6233 207.811 52.6042 207.232 51.4334C205.932 51.7209 204.619 51.9417 203.294 52.0982C200.745 52.3995 198.157 52.3742 195.631 51.875C194.52 51.6565 193.421 51.3092 192.39 50.8284C192.392 50.8721 192.397 50.9135 192.399 50.9572C192.613 53.8993 192.737 56.8483 192.829 59.7974C192.878 61.38 192.914 62.9649 192.937 64.5475C192.956 65.9668 193.004 67.3953 192.944 68.8147C192.896 69.9924 192.726 71.207 192.323 72.3204C191.912 73.4567 191.364 74.4298 190.591 75.3568C189.436 76.7393 187.686 77.7307 185.917 78.0528C185.022 78.2161 184.116 78.2966 183.209 78.1885C182.671 78.1241 182.135 78.0528 181.611 77.9125C181.091 77.7744 180.601 77.5697 180.109 77.3558C178.471 76.645 177.031 75.3545 176.15 73.8018C175.048 71.858 174.857 69.6336 175.269 67.4667C175.54 66.0336 176.189 64.7362 176.817 63.4319C177.585 61.8309 178.363 60.2367 179.152 58.6472C180.148 56.6367 181.16 54.6377 182.186 52.641C181.443 52.5605 180.776 52.3673 180.095 52.0223C179.738 51.8405 179.421 51.5875 179.115 51.3368C178.924 51.1826 178.758 51.0078 178.606 50.8146C178.169 50.2579 177.808 49.6598 177.599 48.9904C176.785 49.6092 175.95 50.205 175.085 50.7433C174.569 51.063 174.04 51.3575 173.493 51.6151C172.743 51.967 171.963 52.2983 171.156 52.4938C170.668 52.6111 170.164 52.6824 169.667 52.7216C169.17 52.7607 168.694 52.7009 168.202 52.6272C167.245 52.4869 166.387 52.0039 165.665 51.3759C165.225 50.994 164.871 50.4948 164.556 50.0118C164.252 49.5471 164.013 49.0318 163.82 48.5074C162.49 49.6966 161.066 50.7824 159.553 51.714C157.202 53.1655 154.55 54.2743 151.798 54.6515C150.379 54.8471 148.976 54.923 147.55 54.7366C146.735 54.6308 145.935 54.5043 145.141 54.2858C144.38 54.0764 143.639 53.7981 142.919 53.4738C141.771 52.9585 140.725 52.1396 139.857 51.2355C138.887 50.2257 138.056 49.0456 137.437 47.7897C136.004 44.8797 135.482 41.6294 135.823 38.4066C135.991 36.7987 136.301 35.2184 136.816 33.6863C137.345 32.1152 138.033 30.5878 138.825 29.1317C139.885 27.1833 141.127 25.3453 142.489 23.5971C140.596 22.4837 138.808 21.1886 137.145 19.7578C135.022 17.9314 133.115 15.8105 131.615 13.4388C131.314 12.9627 131.284 12.3738 131.406 11.8378C131.528 11.3087 131.917 10.8832 132.361 10.5979C132.802 10.3127 133.462 10.2506 133.962 10.3886C134.484 10.5312 134.916 10.8924 135.202 11.3432C135.521 11.847 135.862 12.337 136.221 12.8155C137.674 14.6626 139.377 16.3028 141.221 17.7543C142.491 18.7181 143.828 19.5945 145.219 20.372C147.26 18.1315 149.468 16.0405 151.808 14.1128C154.377 11.9965 157.085 10.0344 159.935 8.31371C162.872 6.54016 165.98 5.05875 169.23 3.95919C172.297 2.92174 175.616 2.07982 178.862 2.6388C181.443 3.08506 183.856 4.93683 184.314 7.62131C184.539 8.9371 184.461 10.2299 184.12 11.5204C183.798 12.7372 183.265 13.9219 182.63 15.0077C181.293 17.2896 179.4 19.3001 177.323 20.9218C176.147 21.8419 174.93 22.6885 173.626 23.42C172.301 24.1653 170.914 24.7956 169.499 25.3545C166.967 26.3598 164.31 27.0361 161.612 27.4018C160.126 27.6043 158.64 27.7469 157.14 27.7676C155.67 27.7883 154.223 27.6825 152.769 27.457C150.522 27.1097 148.336 26.4058 146.248 25.4995C145.997 25.8054 145.751 26.1137 145.509 26.4242C143.874 28.5819 142.422 30.9259 141.339 33.408C140.711 34.9423 140.248 36.5364 140.002 38.1766C139.848 39.4993 139.825 40.8404 139.975 42.163C140.14 43.2166 140.421 44.2494 140.814 45.2409C141.18 46.0552 141.622 46.8304 142.146 47.5504C142.604 48.1186 143.112 48.6408 143.676 49.1008C144.085 49.393 144.518 49.6506 144.978 49.8622C145.877 50.2096 146.818 50.4534 147.771 50.603C148.831 50.7226 149.901 50.718 150.963 50.5984C152.261 50.3982 153.524 50.0348 154.74 49.5471C156.429 48.8064 158.007 47.8403 159.477 46.7315C161.641 45.027 163.56 43.0303 165.26 40.8657C165.384 40.7046 165.506 40.5413 165.626 40.3757C165.674 40.3113 165.72 40.2492 165.768 40.1848C165.798 40.1457 165.828 40.1066 165.856 40.0674C165.955 39.8995 166.074 39.7523 166.21 39.6212C166.364 39.4326 166.518 39.2462 166.677 39.0622C169.276 36.0626 173.026 33.9532 177.077 34.1487C177.99 34.1924 178.947 34.3074 179.812 34.6226C180.295 34.7997 180.796 35.0021 181.226 35.292C181.827 35.6968 182.241 36.1109 182.673 36.6814C183.384 37.6153 183.676 38.9311 183.582 40.0882C183.483 41.2958 183.136 42.4391 182.556 43.4972C182.538 43.5386 182.515 43.5777 182.492 43.6169C182.089 44.6152 181.689 45.6227 181.505 46.6855C181.484 46.9431 181.48 47.2008 181.498 47.4584C181.528 47.5964 181.562 47.7321 181.606 47.8656C181.641 47.9323 181.68 47.999 181.719 48.0634C181.783 48.1347 181.852 48.2014 181.923 48.2658C182.002 48.3141 182.08 48.3601 182.16 48.4038C182.28 48.4429 182.4 48.4751 182.522 48.5028C182.648 48.5097 182.775 48.5097 182.901 48.5028C183.106 48.4567 183.304 48.3946 183.501 48.321C183.897 48.1393 184.274 47.9254 184.629 47.6746C184.716 47.601 184.801 47.5297 184.884 47.4515C186.197 44.9671 187.529 42.492 188.884 40.0306C190.393 37.2887 191.928 34.5628 193.494 31.8553C194.819 29.5664 196.169 27.2914 197.561 25.0417C198.603 23.3602 199.664 21.6878 200.793 20.0638C201.285 19.3576 201.796 18.6675 202.327 17.9912C202.491 17.7842 202.656 17.5794 202.829 17.3793C203.321 16.8134 203.88 16.3856 204.699 16.3672C205.129 16.3557 205.571 16.4293 205.99 16.4937C206.224 16.5305 206.454 16.5834 206.68 16.6593C207.462 16.9215 208.069 17.2804 208.706 17.7888C209.695 18.5755 210.316 19.7256 210.744 20.8919C211.17 22.0559 211.322 23.3464 211.338 24.5793C211.358 25.9503 211.177 27.3397 210.878 28.6762C210.319 31.1675 209.21 33.5345 207.66 35.5634C206.898 36.5617 206.091 37.5026 205.171 38.356C204.248 39.214 203.248 39.9892 202.228 40.7276C200.177 42.2114 197.994 43.5064 195.857 44.859C194.976 45.4157 194.101 45.9839 193.234 46.5613C193.618 46.8005 194.019 47.0144 194.435 47.1985C195.406 47.5757 196.422 47.8265 197.453 47.9829C197.844 48.0312 198.235 48.068 198.628 48.0933C200.241 48.1922 201.858 48.1117 203.461 47.9139C204.076 47.8265 204.69 47.7252 205.297 47.6033C205.7 47.5228 206.098 47.4354 206.496 47.3411C206.537 46.9063 206.606 46.4716 206.682 46.0414C206.831 45.1903 207.068 44.353 207.393 43.5524C207.742 42.6898 208.129 41.8525 208.633 41.0681C209.095 40.3458 209.624 39.658 210.197 39.0162C211.087 38.0202 212.138 37.146 213.256 36.4145C214.211 35.7888 215.274 35.2805 216.401 35.0688C217.27 34.9055 218.177 34.8043 219.062 34.8986C220.005 34.9975 221.001 35.1723 221.802 35.7221C222.632 36.2926 223.224 37.0448 223.465 38.0386C223.585 38.5285 223.656 39.0553 223.628 39.5614C223.573 40.6264 223.258 41.6248 222.731 42.5518C221.662 44.4381 219.877 45.8804 218.089 47.0466C216.021 48.3946 213.723 49.4137 211.398 50.2303C211.49 50.3269 211.586 50.4212 211.687 50.5109C211.837 50.6099 211.991 50.7019 212.15 50.7824C212.359 50.8537 212.573 50.9089 212.789 50.9503C213.707 51.0423 214.655 51.0308 215.57 50.9296C216.325 50.8054 217.061 50.603 217.772 50.3246C218.897 49.8208 219.939 49.1583 220.921 48.4176C221.356 48.0887 222.014 48.0933 222.52 48.2083M153.742 17.8831C152.148 19.2495 150.614 20.6941 149.158 22.2146C150.747 22.7966 152.387 23.2382 154.062 23.4821C156.247 23.7351 158.481 23.6454 160.662 23.3763C163.447 22.9875 166.185 22.2583 168.786 21.1863C170.808 20.3076 172.736 19.2173 174.496 17.8877C175.821 16.8364 177.044 15.6426 178.098 14.3176C178.735 13.4572 179.29 12.5348 179.727 11.5549C179.961 10.9545 180.148 10.3357 180.26 9.70081C180.297 9.33276 180.302 8.9647 180.272 8.59665C180.233 8.40572 180.182 8.2171 180.12 8.03537C180.053 7.90195 179.977 7.77543 179.897 7.65122C179.793 7.5362 179.685 7.42808 179.57 7.32687C179.379 7.19805 179.177 7.08074 178.97 6.97952C178.56 6.8277 178.139 6.71728 177.709 6.64367C176.895 6.56776 176.074 6.59997 175.262 6.69428C172.722 7.07383 170.222 7.90655 167.85 8.88649C166.944 9.27525 166.051 9.69391 165.172 10.1425C162 11.7642 159.005 13.7356 156.178 15.8979C155.352 16.542 154.538 17.2022 153.742 17.8854M196.675 34.6502C195.252 37.1207 193.855 39.6074 192.48 42.1055C193.552 41.4131 194.633 40.7345 195.716 40.0559C197.425 38.984 199.141 37.912 200.749 36.6929C202.017 35.6922 203.185 34.5812 204.193 33.316C204.934 32.3245 205.578 31.2618 206.082 30.1323C206.558 28.9385 206.896 27.6917 207.087 26.4219C207.199 25.442 207.22 24.4528 207.114 23.4729C207.029 22.9668 206.905 22.4653 206.728 21.9846C206.606 21.7292 206.468 21.4831 206.307 21.2485C206.199 21.1265 206.084 21.0092 205.962 20.8988C205.842 20.8183 205.718 20.747 205.589 20.6826C205.555 20.6711 205.523 20.6619 205.488 20.6527C205.444 20.7079 205.401 20.7608 205.357 20.816C205.286 20.9103 205.214 21.0046 205.143 21.0989C203.85 22.8426 202.679 24.6829 201.529 26.5231C199.857 29.2007 198.251 31.9174 196.675 34.6502ZM175.46 45.4249C176.327 44.7417 177.113 43.9849 177.806 43.1269C178.176 42.63 178.524 42.1193 178.859 41.6018C178.963 41.4223 179.055 41.2383 179.142 41.052C179.262 40.7276 179.356 40.3987 179.421 40.0582C179.435 39.8742 179.437 39.6902 179.425 39.5085C179.402 39.405 179.375 39.3037 179.345 39.2025C179.315 39.1496 179.285 39.0944 179.253 39.0438C179.191 38.9771 179.126 38.9127 179.057 38.8506C178.938 38.7747 178.813 38.7034 178.687 38.6412C178.317 38.5078 177.932 38.4135 177.544 38.3491C176.888 38.2847 176.223 38.2824 175.565 38.3491C174.919 38.4572 174.289 38.6343 173.677 38.869C172.927 39.2094 172.218 39.6327 171.556 40.1204C170.654 40.845 169.847 41.68 169.127 42.5863C168.651 43.2235 168.209 43.8929 167.871 44.6129C167.733 44.9786 167.625 45.3513 167.553 45.7355C167.535 45.9977 167.535 46.2599 167.553 46.5222C167.604 46.7706 167.671 47.0167 167.756 47.256C167.901 47.5527 168.069 47.8334 168.257 48.1025C168.34 48.1968 168.427 48.2888 168.519 48.3762C168.584 48.4176 168.648 48.4544 168.715 48.4913C168.819 48.5235 168.924 48.5534 169.03 48.5764C169.244 48.5879 169.456 48.5833 169.67 48.5649C170.162 48.4728 170.643 48.3256 171.112 48.1462C172.672 47.4561 174.1 46.4601 175.453 45.4272M188.716 69.6382C188.877 68.2051 188.799 66.7375 188.785 65.2998C188.751 62.0494 188.657 58.8013 188.505 55.5556C188.422 53.7521 188.334 51.944 188.183 50.1406C188.162 50.1567 188.144 50.1705 188.123 50.1866C187.161 52.0108 186.211 53.8418 185.273 55.6775C183.375 59.3902 181.526 63.1282 179.736 66.8962C179.517 67.4851 179.345 68.0901 179.237 68.7111C179.184 69.2126 179.177 69.7164 179.225 70.2202C179.294 70.5928 179.393 70.9609 179.527 71.3174C179.678 71.6349 179.855 71.9362 180.058 72.2237C180.299 72.509 180.564 72.7735 180.852 73.0151C181.206 73.2658 181.581 73.4843 181.972 73.6683C182.425 73.8409 182.894 73.9674 183.37 74.0502C183.835 74.0939 184.302 74.0939 184.767 74.0502C185.172 73.9766 185.572 73.8685 185.958 73.7259C186.28 73.5717 186.586 73.3923 186.878 73.1876C187.145 72.9621 187.394 72.7137 187.619 72.4469C187.874 72.088 188.091 71.7062 188.275 71.3059C188.477 70.7653 188.62 70.2064 188.716 69.6382M211.354 44.7624C211.193 45.1696 211.055 45.5836 210.94 46.0023C211.289 45.8712 211.637 45.7332 211.984 45.5905C212.357 45.4295 212.727 45.2639 213.093 45.0868C214.471 44.4266 215.807 43.6606 217.029 42.7404C217.643 42.2459 218.225 41.703 218.729 41.0957C218.952 40.7851 219.152 40.4585 219.318 40.1158C219.377 39.9478 219.426 39.7753 219.463 39.6005C219.469 39.474 219.469 39.3451 219.463 39.2186L219.456 39.1841C219.295 39.1335 219.129 39.0921 218.963 39.0599C218.508 39.0185 218.05 39.0254 217.595 39.0714C217.206 39.1381 216.822 39.237 216.451 39.375C215.858 39.6603 215.297 40.0214 214.768 40.4125C214.004 41.0244 213.307 41.7145 212.693 42.4759C212.168 43.189 211.717 43.9527 211.354 44.7601" fill="#365F3D"/>
</g>
</svg>
