<svg width="26" height="26" viewBox="0 0 26 26" fill="none" xmlns="http://www.w3.org/2000/svg">
<g clip-path="url(#clip0_704_3766)">
<path fill-rule="evenodd" clip-rule="evenodd" d="M22.1183 1.47024C22.0291 1.47022 21.9426 1.50102 21.8735 1.55742C21.8044 1.61382 21.757 1.69237 21.7391 1.77976C21.7371 1.78955 21.7349 1.79929 21.7323 1.80895L20.9564 4.76482L18.3224 17.9348L18.322 17.9369C18.2542 18.269 18.0737 18.5675 17.8112 18.7818C17.5487 18.9961 17.2202 19.1131 16.8813 19.1131H5.57126C5.2721 19.1131 5.02959 18.8706 5.02959 18.5714C5.02959 18.2723 5.2721 18.0298 5.57126 18.0298H16.8813C16.9705 18.0298 17.057 17.999 17.1261 17.9426C17.195 17.8863 17.2424 17.8081 17.2604 17.721L17.2605 17.7202L17.9105 14.4702H3.38305C3.03721 14.4739 2.70138 14.354 2.43606 14.132C2.17268 13.9116 1.99605 13.6051 1.93736 13.2669L0.41634 5.84735L0.414153 5.83607C0.375445 5.62455 0.383607 5.40711 0.438065 5.19908C0.492523 4.99106 0.59195 4.79751 0.729337 4.63208C0.866724 4.46666 1.03873 4.33338 1.23322 4.24166C1.42771 4.14993 1.63995 4.10198 1.85499 4.10119L1.85697 4.10118L20.0106 4.10119L20.6811 1.54674C20.7514 1.22121 20.9302 0.929014 21.1885 0.718204C21.451 0.503893 21.7795 0.386858 22.1184 0.386902H25.0713C25.3704 0.386902 25.6129 0.629414 25.6129 0.928568C25.6129 1.22772 25.3704 1.47024 25.0713 1.47024H22.1183ZM1.85818 5.18452C1.80186 5.18484 1.74628 5.19745 1.69533 5.22148C1.64415 5.24562 1.59889 5.28069 1.56273 5.32423C1.52658 5.36776 1.50041 5.41869 1.48608 5.47344C1.47213 5.52673 1.46973 5.58236 1.479 5.63663L3.00046 13.0584C3.00185 13.0651 3.00311 13.0719 3.00424 13.0788C3.01861 13.1657 3.06368 13.2446 3.13126 13.3011C3.19884 13.3577 3.28446 13.3881 3.37257 13.3869L3.37983 13.3869L18.1272 13.3869L19.7677 5.18452H1.85818Z" fill="#343434"/>
<path fill-rule="evenodd" clip-rule="evenodd" d="M5.02959 24.1429C5.02959 23.3309 5.68784 22.6726 6.49983 22.6726C7.31182 22.6726 7.97007 23.3309 7.97007 24.1429C7.97007 24.9548 7.31182 25.6131 6.49983 25.6131C5.68784 25.6131 5.02959 24.9548 5.02959 24.1429ZM6.49983 23.7559C6.28615 23.7559 6.11292 23.9292 6.11292 24.1429C6.11292 24.3565 6.28615 24.5298 6.49983 24.5298C6.71351 24.5298 6.88673 24.3565 6.88673 24.1429C6.88673 23.9292 6.71351 23.7559 6.49983 23.7559Z" fill="#343434"/>
<path fill-rule="evenodd" clip-rule="evenodd" d="M15.7855 22.6726C14.9736 22.6726 14.3153 23.3309 14.3153 24.1429C14.3153 24.9548 14.9736 25.6131 15.7855 25.6131C16.5975 25.6131 17.2558 24.9548 17.2558 24.1429C17.2558 23.3309 16.5975 22.6726 15.7855 22.6726ZM15.3986 24.1429C15.3986 23.9292 15.5719 23.7559 15.7855 23.7559C15.9992 23.7559 16.1724 23.9292 16.1724 24.1429C16.1724 24.3565 15.9992 24.5298 15.7855 24.5298C15.5719 24.5298 15.3986 24.3565 15.3986 24.1429Z" fill="#343434"/>
</g>
<defs>
<clipPath id="clip0_704_3766">
<rect width="26" height="26" fill="white"/>
</clipPath>
</defs>
</svg>
